<?xml version="1.0"?>
<svg width="258" height="837" xmlns="http://www.w3.org/2000/svg" xmlns:svg="http://www.w3.org/2000/svg" preserveAspectRatio="xMinYMin meet" class="bottle-img pull-right">
 <g>
  <text id="svg_1" text-anchor="left" y="220" x="78" class="gauge-unit"/>
  <g id="svg_2" class="gauge-values">
   <defs>
    <clipPath id="bottle-cut-off-top">
     <rect id="svg_3" height="0" width="258" y="822" x="0" class="gauge-value-bubble-cut"/>
    </clipPath>
   </defs>
   <rect id="svg_4" height="0" width="216" y="822" x="20" class="gauge-value"/>
   <path id="svg_5" d="m232.801,703.685c-3.221,-3.223 -6.781,-2.344 -6.781,-10.338c0,-4.859 8.305,-2.204 8.982,-17.284c0.678,-15.082 -0.407,-147.848 -0.407,-147.848l-214.461,-0.101c0,16.436 0,152.186 0,152.186s-1.015,4.405 5.085,7.962c2.542,1.187 4.915,3.391 4.407,6.781c-0.509,3.386 -3.898,4.236 -5.424,6.606c-1.524,2.372 -4.915,2.372 -4.576,16.776l0.341,28.638c0,0 3.047,32.195 16.604,46.261c13.558,14.065 27.112,27.79 48.805,26.604c21.688,-1.187 35.415,-18.641 47.448,-13.219c12.03,5.422 33.722,20.335 53.716,9.999c19.994,-10.338 49.985,-18.302 49.985,-84.05c0.001,-23.89 -0.504,-25.755 -3.724,-28.973zm-138.175,12.524c-10.069,0 -18.236,-8.164 -18.236,-18.234c0,-10.071 8.167,-18.236 18.236,-18.236c10.073,0 18.236,8.165 18.236,18.236c0.001,10.07 -8.162,18.234 -18.236,18.234zm28.725,48.628c-3.36,0 -6.079,-2.719 -6.079,-6.077c0,-3.357 2.719,-6.078 6.079,-6.078c3.354,0 6.077,2.721 6.077,6.078c0,3.358 -2.722,6.077 -6.077,6.077zm45.195,-21.102c-8.206,0 -14.86,-6.653 -14.86,-14.857c0,-8.205 6.654,-14.856 14.86,-14.856s14.856,6.651 14.856,14.856c0.001,8.204 -6.65,14.857 -14.856,14.857z" fill="#FFFFFF" clip-path="url(#bottle-cut-off-top)" class="gauge-value-bubbles"/>
  </g>
  <g id="svg_6" class="gauge-lines"/>
  <line id="svg_7" y2="819" y1="819" x2="60" x1="20" class="average-indicator"/>
  <g id="svg_8">
   <path id="svg_9" d="m6.104,719.749l0.382,32.207c0,0 3.43,36.212 18.676,52.031c15.249,15.819 30.495,31.257 54.89,29.922c24.395,-1.335 39.833,-20.964 53.365,-14.866c13.529,6.1 37.927,22.871 60.414,11.246c22.492,-11.626 56.225,-20.584 56.225,-94.532c0,-26.871 -0.57,-28.969 -4.193,-32.589c-3.622,-3.623 -7.623,-2.635 -7.623,-11.626c0,-5.467 9.34,-2.479 10.1,-19.439c0.765,-16.963 0,-366.307 0,-366.307s0,-4.384 -2.477,-6.099s-4.575,-0.762 -4.575,-10.864c0,-4.574 0,-5.526 0,-5.526s-0.571,-3.241 3.052,-3.623c3.618,-0.38 4.953,-9.147 4,-17.914c-0.952,-8.767 -11.623,-40.023 -57.366,-81.191c-13.246,-13.244 -17.916,-17.343 -17.916,-17.343l-89.386,0c0,0 -40.024,35.259 -55.65,57.367c-15.628,22.109 -28.971,46.123 -17.154,58.128c1.526,1.526 3.812,0 3.812,9.911c0,3.241 -0.38,4.765 -0.38,4.765s1.144,2.479 -2.479,4.002c-3.621,1.526 -5.146,0.573 -5.146,19.06s0,360.399 0,360.399s-1.142,4.955 5.719,8.956c2.859,1.335 5.526,3.813 4.956,7.625c-0.573,3.812 -4.384,4.765 -6.099,7.432c-1.715,2.667 -5.529,2.667 -5.147,18.868z" stroke-miterlimit="10" stroke-width="2" stroke="#FFFFFF" fill="none"/>
   <path id="svg_10" d="m177.759,155.542c0,0.842 -0.854,1.524 -1.902,1.524l-95.302,0c-1.047,0 -1.899,-0.682 -1.899,-1.524l0,-4.701c0,-0.842 0.852,-1.524 1.899,-1.524l95.302,0c1.048,0 1.902,0.682 1.902,1.524l0,4.701z" fill="#FFFFFF"/>
   <path id="svg_11" d="m173.188,96.629c0,-0.748 -0.683,-1.351 -1.528,-1.351l-87.033,0c-0.842,0 -1.523,0.604 -1.523,1.351l0,45.5c0,0.746 0.682,1.352 1.523,1.352l87.033,0c0.846,0 1.528,-0.606 1.528,-1.352l0,-45.5z" stroke-miterlimit="10" stroke-width="2" stroke="#FFFFFF" fill="none"/>
   <path id="svg_12" d="m98.822,25.035c0,10.071 8.168,18.234 18.236,18.234c10.074,0 18.235,-8.163 18.235,-18.234s-8.161,-18.236 -18.235,-18.236c-10.068,0 -18.236,8.165 -18.236,18.236z" fill="#2a9fd6"/>
   <path id="svg_13" d="m116.198,113.161c0,3.358 2.719,6.077 6.079,6.077c3.353,0 6.075,-2.719 6.075,-6.077c0,-3.357 -2.723,-6.079 -6.075,-6.079c-3.36,0 -6.079,2.721 -6.079,6.079z" fill="#2a9fd6"/>
   <path id="svg_14" d="m134.057,72.761c0,8.205 6.658,14.858 14.86,14.858c8.206,0 14.86,-6.654 14.86,-14.858c0,-8.204 -6.654,-14.856 -14.86,-14.856c-8.202,0.001 -14.86,6.652 -14.86,14.856z" fill="#2a9fd6"/>
  </g>
 </g>
</svg>