<?xml version="1.0"?>
<svg width="186" height="837" xmlns="http://www.w3.org/2000/svg" xmlns:svg="http://www.w3.org/2000/svg" preserveAspectRatio="xMinYMin meet" class="gauge-glass-img pull-right">
 <g>
  <title>Layer 1</title>
  <text id="svg_1" text-anchor="left" y="175" x="78" class="gauge-unit">mg/l</text>
  <path id="svg_2" d="m145.993,832.667l-107.595,0c-16.112,0 -15.916,-16.613 -15.916,-16.613l0,-657.947c-8.89,0 -16.094,-7.203 -16.094,-16.092l0,-7.179c0,-8.887 7.204,-16.094 16.094,-16.094l139.661,0c8.887,0 16.094,7.207 16.094,16.094l0,7.179c0,8.889 -7.207,16.092 -16.094,16.092l-0.178,657.84c0.001,0 1.034,16.72 -15.972,16.72z" class="gauge-glass"/>
  <g id="svg_3" class="gauge-values">
   <defs>
    <clipPath id="cut-off-top">
     <rect id="svg_4" height="0" width="116" y="822" x="34" class="gauge-value-bubble-cut"/>
    </clipPath>
    <pattern patternUnits="userSpaceOnUse" height="8" width="8" y="8" x="8" id="range-indicator">
     <line id="svg_5" y2="0" y1="8" x2="8" x1="0" class="range-indicator"/>
    </pattern>
   </defs>
   <rect id="svg_6" height="0" width="115" y="822" x="34.5" class="gauge-value"/>
   <path id="svg_7" d="m149.469,324.376l-115.464,0l0,482.118c0,0 -0.174,14.819 14.195,14.819l86.875,0c15.169,0 14.247,-14.912 14.247,-14.912l0.147,-482.025zm-75.709,417.451c-3.763,0 -6.814,-3.05 -6.814,-6.813s3.052,-6.813 6.814,-6.813c3.764,0 6.812,3.05 6.812,6.813s-3.048,6.813 -6.812,6.813zm31.422,59.202c-11.289,0 -20.439,-9.15 -20.439,-20.439c0,-11.288 9.15,-20.439 20.439,-20.439c11.29,0 20.441,9.151 20.441,20.439c0,11.289 -9.151,20.439 -20.441,20.439zm12.486,-61.471c-9.198,0 -16.653,-7.457 -16.653,-16.653s7.455,-16.658 16.653,-16.658c9.196,0 16.653,7.462 16.653,16.658s-7.457,16.653 -16.653,16.653z" clip-path="url(#cut-off-top)" class="gauge-value-bubbles"/>
   <rect id="svg_8" fill="url(#range-indicator)" height="0" width="115" y="822" x="34.5" class="gauge-value-2"/>
  </g>
  <g id="svg_9" class="gauge-bubbles">
   <path id="svg_10" d="m141.745,24.696c0,11.292 -9.15,20.441 -20.442,20.441c-11.287,0 -20.437,-9.149 -20.437,-20.441c0,-11.288 9.149,-20.439 20.437,-20.439c11.292,0 20.442,9.152 20.442,20.439z"/>
   <path id="svg_11" d="m106.921,92.833c0,3.763 -3.048,6.813 -6.814,6.813c-3.763,0 -6.813,-3.05 -6.813,-6.813c0,-3.762 3.05,-6.812 6.813,-6.812c3.766,0 6.814,3.05 6.814,6.812z"/>
   <path id="svg_12" d="m84.963,59.335c0,9.198 -7.457,16.658 -16.658,16.658c-9.192,0 -16.651,-7.459 -16.651,-16.658c0,-9.194 7.459,-16.651 16.651,-16.651c9.201,0 16.658,7.457 16.658,16.651z"/>
  </g>
  <g id="svg_13" class="gauge-lines"/>
  <line id="svg_14" y2="822" y1="822" x2="68" x1="36" class="average-indicator"/>
 </g>
</svg>